<?xml version="1.0" encoding="utf-8" ?>
<svg xmlns="http://www.w3.org/2000/svg" xmlns:xlink="http://www.w3.org/1999/xlink" width="1024" height="1024" viewBox="0 0 1024 1024">
  <path fill="#0B1120" d="M0 0L1024 0L1024 1024L0 1024L0 0Z"/>

  <path fill="white" d="M795.41 446.677C797.063 449.067 800.224 471.536 800.734 475.247C809.015 534.488 798.672 594.839 771.135 647.941C741.689 703.932 695.009 748.963 637.996 776.376C619.991 785.035 604.139 790.546 585.184 796.494C580.544 789.651 564.436 772.322 558.482 765.626C547.741 752.035 534.859 738.825 523.573 725.07C531.135 724.336 538.666 723.31 546.148 721.993C602.344 711.824 652.241 679.852 684.963 633.047C719.559 582.978 727.857 528.489 717.094 469.446C742.993 462.454 769.38 453.21 795.41 446.677Z"/>
  <path fill="white" d="M321.195 422.683L322.502 422.483L323.05 422.935C320.253 429.56 316.99 437.24 314.575 443.925C296.49 493.976 299.452 554.86 321.969 603.002C341.096 643.958 373.376 677.337 413.669 697.825C423.371 702.744 434.598 706.844 444.797 710.541L427.907 793.06C413.6 788.708 397.229 781.822 383.737 775.501C331.717 748.689 292.422 713.142 261.835 663.339C251.244 645.778 242.651 627.089 236.215 607.618C216.929 550.637 216.354 496.832 230.157 438.76C236.53 437.913 244.08 436.089 250.686 435.048C274.081 431.361 297.867 426.201 321.195 422.683Z"/>
  <path fill="white" d="M498.861 218.717C501.579 218.56 504.301 218.481 507.024 218.482C586.013 217.442 662.201 247.722 718.925 302.702C709.676 332.204 698.576 362.857 688.694 392.275C681.362 383.53 676.664 375.629 668.026 366.133C639.786 335.678 603.216 314.196 562.863 304.362C547.812 300.385 527.668 297.814 512.154 297.86C471.47 297.887 431.647 309.571 397.397 331.528C389.098 336.847 380.574 342.79 373.636 349.786C351.821 336.191 327.312 317.446 305.454 302.701C356.675 251.301 426.881 222.903 498.861 218.717Z"/>
</svg>
